<svg width="38" height="38" viewBox="0 0 38 38" fill="none" xmlns="http://www.w3.org/2000/svg">
<path d="M13.7934 2.50737C17.0836 0.922871 20.9164 0.922871 24.2066 2.50737L28.6482 4.64633C31.9384 6.23082 34.3281 9.22737 35.1407 12.7877L36.2377 17.5939C37.0503 21.1542 36.1975 24.8909 33.9205 27.746L30.8469 31.6003C28.57 34.4555 25.1168 36.1184 21.4649 36.1184H16.5351C12.8832 36.1184 9.43005 34.4555 7.15313 31.6003L4.07945 27.746C1.80253 24.8909 0.949672 21.1542 1.7623 17.5939L2.85928 12.7877C3.6719 9.22737 6.06156 6.23082 9.35181 4.64633L13.7934 2.50737Z" fill="#00B2FF"/>
<path d="M13.3242 25C13.5195 23.0599 13.666 20.8301 13.7637 18.3105C13.8613 15.791 13.9102 13.5775 13.9102 11.6699C14.6914 11.6829 15.3457 11.6895 15.873 11.6895C16.4395 11.6895 16.9928 11.6797 17.5332 11.6602C18.0801 11.6406 18.6562 11.6309 19.2617 11.6309C20.0169 11.6309 20.6908 11.6732 21.2832 11.7578C21.8822 11.8424 22.4128 12.0378 22.875 12.3438C23.3372 12.6497 23.679 13.0208 23.9004 13.457C24.1283 13.8932 24.2422 14.401 24.2422 14.9805C24.2422 15.3451 24.1999 15.6934 24.1152 16.0254C24.0306 16.3509 23.9036 16.6602 23.7344 16.9531C23.5716 17.2396 23.3763 17.4935 23.1484 17.7148C22.9206 17.9297 22.6927 18.1022 22.4648 18.2324C22.2435 18.3561 21.9896 18.4635 21.7031 18.5547C21.4167 18.6458 21.0326 18.7565 20.5508 18.8867L21.2148 20.1758C21.4297 20.5859 21.8366 21.3216 22.4355 22.3828L23.4219 24.1113C23.474 24.2025 23.6302 24.4987 23.8906 25C23.0964 24.987 22.5723 24.9805 22.3184 24.9805C22.0059 24.9805 21.4557 24.987 20.668 25L19.584 22.4023C19.3952 22.0052 19.1673 21.5365 18.9004 20.9961L17.7188 18.623C17.6016 18.4017 17.4388 18.0697 17.2305 17.627C17.6667 17.7051 18.0638 17.7441 18.4219 17.7441C18.9818 17.7441 19.4928 17.653 19.9551 17.4707C20.4173 17.2884 20.7721 17.0085 21.0195 16.6309C21.2669 16.2467 21.3906 15.8301 21.3906 15.3809C21.3906 15.1074 21.3353 14.8535 21.2246 14.6191C21.1204 14.3848 20.9414 14.1862 20.6875 14.0234C20.4336 13.8607 20.1309 13.7565 19.7793 13.7109C19.4277 13.6654 19.0762 13.6426 18.7246 13.6426C18.5293 13.6426 18.2624 13.6458 17.9238 13.6523C17.5853 13.6589 17.1686 13.6621 16.6738 13.6621L16.498 17.6758L16.3125 25L14.7988 24.9805C14.5579 24.9805 14.0664 24.987 13.3242 25Z" fill="white"/>
</svg>
