<svg width="94" height="38" viewBox="0 0 94 38" fill="none" xmlns="http://www.w3.org/2000/svg">
<path d="M13.7934 2.50737C17.0836 0.922871 20.9164 0.922871 24.2066 2.50737L28.6482 4.64633C31.9384 6.23082 34.3281 9.22737 35.1407 12.7877L36.2377 17.5939C37.0503 21.1542 36.1975 24.8909 33.9205 27.746L30.8469 31.6003C28.57 34.4555 25.1168 36.1184 21.4649 36.1184H16.5351C12.8832 36.1184 9.43005 34.4555 7.15313 31.6003L4.07945 27.746C1.80253 24.8909 0.949672 21.1542 1.7623 17.5939L2.85928 12.7877C3.6719 9.22737 6.06156 6.23082 9.35181 4.64633L13.7934 2.50737Z" fill="#00B2FF"/>
<path d="M13.3242 25C13.5195 23.0599 13.666 20.8301 13.7637 18.3105C13.8613 15.791 13.9102 13.5775 13.9102 11.6699C14.6914 11.6829 15.3457 11.6895 15.873 11.6895C16.4395 11.6895 16.9928 11.6797 17.5332 11.6602C18.0801 11.6406 18.6562 11.6309 19.2617 11.6309C20.0169 11.6309 20.6908 11.6732 21.2832 11.7578C21.8822 11.8424 22.4128 12.0378 22.875 12.3438C23.3372 12.6497 23.679 13.0208 23.9004 13.457C24.1283 13.8932 24.2422 14.401 24.2422 14.9805C24.2422 15.3451 24.1999 15.6934 24.1152 16.0254C24.0306 16.3509 23.9036 16.6602 23.7344 16.9531C23.5716 17.2396 23.3763 17.4935 23.1484 17.7148C22.9206 17.9297 22.6927 18.1022 22.4648 18.2324C22.2435 18.3561 21.9896 18.4635 21.7031 18.5547C21.4167 18.6458 21.0326 18.7565 20.5508 18.8867L21.2148 20.1758C21.4297 20.5859 21.8366 21.3216 22.4355 22.3828L23.4219 24.1113C23.474 24.2025 23.6302 24.4987 23.8906 25C23.0964 24.987 22.5723 24.9805 22.3184 24.9805C22.0059 24.9805 21.4557 24.987 20.668 25L19.584 22.4023C19.3952 22.0052 19.1673 21.5365 18.9004 20.9961L17.7188 18.623C17.6016 18.4017 17.4388 18.0697 17.2305 17.627C17.6667 17.7051 18.0638 17.7441 18.4219 17.7441C18.9818 17.7441 19.4928 17.653 19.9551 17.4707C20.4173 17.2884 20.7721 17.0085 21.0195 16.6309C21.2669 16.2467 21.3906 15.8301 21.3906 15.3809C21.3906 15.1074 21.3353 14.8535 21.2246 14.6191C21.1204 14.3848 20.9414 14.1862 20.6875 14.0234C20.4336 13.8607 20.1309 13.7565 19.7793 13.7109C19.4277 13.6654 19.0762 13.6426 18.7246 13.6426C18.5293 13.6426 18.2624 13.6458 17.9238 13.6523C17.5853 13.6589 17.1686 13.6621 16.6738 13.6621L16.498 17.6758L16.3125 25L14.7988 24.9805C14.5579 24.9805 14.0664 24.987 13.3242 25Z" fill="white"/>
<path d="M45.1328 25C45.3281 23.0599 45.4746 20.8301 45.5723 18.3105C45.6699 15.791 45.7188 13.5775 45.7188 11.6699C46.5 11.6829 47.1543 11.6895 47.6816 11.6895C48.248 11.6895 48.8014 11.6797 49.3418 11.6602C49.8887 11.6406 50.4648 11.6309 51.0703 11.6309C51.8255 11.6309 52.4993 11.6732 53.0918 11.7578C53.6908 11.8424 54.2214 12.0378 54.6836 12.3438C55.1458 12.6497 55.4876 13.0208 55.709 13.457C55.9368 13.8932 56.0508 14.401 56.0508 14.9805C56.0508 15.3451 56.0085 15.6934 55.9238 16.0254C55.8392 16.3509 55.7122 16.6602 55.543 16.9531C55.3802 17.2396 55.1849 17.4935 54.957 17.7148C54.7292 17.9297 54.5013 18.1022 54.2734 18.2324C54.0521 18.3561 53.7982 18.4635 53.5117 18.5547C53.2253 18.6458 52.8411 18.7565 52.3594 18.8867L53.0234 20.1758C53.2383 20.5859 53.6452 21.3216 54.2441 22.3828L55.2305 24.1113C55.2826 24.2025 55.4388 24.4987 55.6992 25C54.9049 24.987 54.3809 24.9805 54.127 24.9805C53.8145 24.9805 53.2643 24.987 52.4766 25L51.3926 22.4023C51.2038 22.0052 50.9759 21.5365 50.709 20.9961L49.5273 18.623C49.4102 18.4017 49.2474 18.0697 49.0391 17.627C49.4753 17.7051 49.8724 17.7441 50.2305 17.7441C50.7904 17.7441 51.3014 17.653 51.7637 17.4707C52.2259 17.2884 52.5807 17.0085 52.8281 16.6309C53.0755 16.2467 53.1992 15.8301 53.1992 15.3809C53.1992 15.1074 53.1439 14.8535 53.0332 14.6191C52.929 14.3848 52.75 14.1862 52.4961 14.0234C52.2422 13.8607 51.9395 13.7565 51.5879 13.7109C51.2363 13.6654 50.8848 13.6426 50.5332 13.6426C50.3379 13.6426 50.071 13.6458 49.7324 13.6523C49.3939 13.6589 48.9772 13.6621 48.4824 13.6621L48.3066 17.6758L48.1211 25L46.6074 24.9805C46.3665 24.9805 45.875 24.987 45.1328 25ZM58.1211 13.3691C58.1471 12.6986 58.1602 12.1842 58.1602 11.8262V11.5137C58.7526 11.5267 59.2344 11.5332 59.6055 11.5332C60.1133 11.5332 60.5853 11.5267 61.0215 11.5137C61.002 11.6764 60.9889 11.862 60.9824 12.0703L60.9336 13.3691C60.4388 13.3561 59.9831 13.3496 59.5664 13.3496C59.1497 13.3496 58.668 13.3561 58.1211 13.3691ZM57.5938 25C57.6914 24.0234 57.7598 23.2064 57.7988 22.5488C57.8639 21.5072 57.9193 20.306 57.9648 18.9453C58.0169 17.5846 58.0527 16.2923 58.0723 15.0684C58.7103 15.0814 59.1888 15.0879 59.5078 15.0879C59.8008 15.0879 60.276 15.0814 60.9336 15.0684C60.8424 16.2012 60.7676 17.2819 60.709 18.3105C60.6569 19.3392 60.6178 20.5176 60.5918 21.8457C60.5658 23.1738 60.5527 24.2253 60.5527 25C59.9603 24.987 59.485 24.9805 59.127 24.9805C58.7884 24.9805 58.2773 24.987 57.5938 25ZM73.0234 25C72.4831 24.987 72.0632 24.9805 71.7637 24.9805C71.4382 24.9805 70.9889 24.987 70.416 25L70.5039 23.3008C70.2174 23.6719 69.9701 23.9583 69.7617 24.1602C69.5599 24.362 69.306 24.5508 69 24.7266C68.7005 24.8958 68.375 25.0228 68.0234 25.1074C67.6719 25.1921 67.3073 25.2344 66.9297 25.2344C66.3047 25.2344 65.7188 25.1204 65.1719 24.8926C64.625 24.6647 64.1595 24.3457 63.7754 23.9355C63.3913 23.5189 63.1081 23.0273 62.9258 22.4609C62.7435 21.888 62.6523 21.2923 62.6523 20.6738C62.6523 19.821 62.8151 18.9909 63.1406 18.1836C63.4661 17.3698 63.9121 16.7122 64.4785 16.2109C65.0449 15.7096 65.6862 15.3548 66.4023 15.1465C67.1185 14.9382 67.8867 14.834 68.707 14.834C69.2995 14.834 69.9701 14.8893 70.7188 15C70.7643 14.1536 70.7871 13.265 70.7871 12.334V11.6699C71.3991 11.6829 71.8678 11.6895 72.1934 11.6895C72.6165 11.6895 73.0918 11.6829 73.6191 11.6699C73.4759 13.3236 73.3392 15.5762 73.209 18.4277C73.0853 21.2728 73.0234 23.4635 73.0234 25ZM70.6113 16.8555C70.123 16.7253 69.6543 16.6602 69.2051 16.6602C68.6908 16.6602 68.1992 16.7318 67.7305 16.875C67.2617 17.0182 66.8451 17.2624 66.4805 17.6074C66.1224 17.9525 65.8457 18.3952 65.6504 18.9355C65.4551 19.4759 65.3574 19.9967 65.3574 20.498C65.3574 20.9993 65.4453 21.4583 65.6211 21.875C65.8034 22.2917 66.0833 22.6204 66.4609 22.8613C66.8385 23.1022 67.265 23.2227 67.7402 23.2227C68.0983 23.2227 68.4238 23.1608 68.7168 23.0371C69.0098 22.9069 69.2767 22.7116 69.5176 22.4512C69.7585 22.1842 69.9603 21.8424 70.123 21.4258C70.2923 21.0091 70.4128 20.4557 70.4844 19.7656C70.5299 19.2578 70.5723 18.2878 70.6113 16.8555ZM84.3125 22.7832C84.2279 23.1673 84.1074 23.8574 83.9512 24.8535C83.248 25.0033 82.6556 25.1042 82.1738 25.1562C81.6921 25.2083 81.207 25.2344 80.7188 25.2344C79.8659 25.2344 79.1009 25.1497 78.4238 24.9805C77.7533 24.8112 77.1641 24.502 76.6562 24.0527C76.1484 23.597 75.7741 23.0404 75.5332 22.3828C75.2923 21.7253 75.1719 21.0352 75.1719 20.3125C75.1719 19.5117 75.3118 18.737 75.5918 17.9883C75.8717 17.2331 76.2624 16.6178 76.7637 16.1426C77.2715 15.6608 77.8477 15.3223 78.4922 15.127C79.1367 14.9251 79.8105 14.8242 80.5137 14.8242C81.1777 14.8242 81.8092 14.9089 82.4082 15.0781C83.0072 15.2409 83.5085 15.5111 83.9121 15.8887C84.3223 16.2663 84.6348 16.722 84.8496 17.2559C85.071 17.7832 85.1816 18.3724 85.1816 19.0234C85.1816 19.3294 85.1491 19.6452 85.084 19.9707L77.9258 19.9805C77.9128 20.2214 77.9062 20.4134 77.9062 20.5566C77.9062 20.9928 77.9811 21.3932 78.1309 21.7578C78.2806 22.1224 78.4987 22.4316 78.7852 22.6855C79.0716 22.9395 79.4134 23.1283 79.8105 23.252C80.2077 23.3691 80.5983 23.4277 80.9824 23.4277C81.4316 23.4277 81.9167 23.3789 82.4375 23.2812C82.9648 23.1836 83.5898 23.0176 84.3125 22.7832ZM78.0039 18.8379L82.5742 18.8477C82.5742 18.5352 82.5645 18.304 82.5449 18.1543C82.5254 18.0046 82.4798 17.8353 82.4082 17.6465C82.3431 17.4512 82.252 17.2819 82.1348 17.1387C82.0176 16.9889 81.8809 16.8652 81.7246 16.7676C81.5684 16.6699 81.3861 16.5951 81.1777 16.543C80.9759 16.4909 80.7578 16.4648 80.5234 16.4648C80.25 16.4648 79.9831 16.5072 79.7227 16.5918C79.4688 16.6764 79.2344 16.8001 79.0195 16.9629C78.8047 17.1257 78.6289 17.3079 78.4922 17.5098C78.362 17.7116 78.2643 17.9069 78.1992 18.0957C78.1341 18.278 78.069 18.5254 78.0039 18.8379ZM86.6465 25L86.9297 20.3613L87.0078 17.666C87.0208 17.1126 87.0273 16.556 87.0273 15.9961C87.0273 15.8984 87.0208 15.5892 87.0078 15.0684C87.6133 15.0814 88.0592 15.0879 88.3457 15.0879C88.6777 15.0879 89.1172 15.0814 89.6641 15.0684L89.6152 16.4453C89.8626 16.0938 90.0742 15.8333 90.25 15.6641C90.4258 15.4883 90.6211 15.3385 90.8359 15.2148C91.0573 15.0911 91.3014 14.9967 91.5684 14.9316C91.8353 14.8665 92.1087 14.834 92.3887 14.834C92.6491 14.834 92.916 14.8665 93.1895 14.9316C93.1895 15.5371 93.2188 16.3053 93.2773 17.2363C92.8932 17.1322 92.5449 17.0801 92.2324 17.0801C91.8548 17.0801 91.5195 17.1387 91.2266 17.2559C90.9401 17.3665 90.6797 17.5391 90.4453 17.7734C90.2174 18.0013 90.0286 18.2845 89.8789 18.623C89.7552 18.8965 89.6641 19.2513 89.6055 19.6875C89.5534 20.026 89.5078 20.6055 89.4688 21.4258C89.4362 22.2461 89.4199 23.0534 89.4199 23.8477C89.4199 24.1536 89.4297 24.5378 89.4492 25C88.9544 24.987 88.502 24.9805 88.0918 24.9805C87.6882 24.9805 87.2064 24.987 86.6465 25Z" fill="#5E6278"/>
</svg>
